<?xml version="1.0" standalone="no"?>
<!DOCTYPE svg PUBLIC "-//W3C//DTD SVG 20010904//EN"
 "http://www.w3.org/TR/2001/REC-SVG-20010904/DTD/svg10.dtd">
<svg version="1.0" xmlns="http://www.w3.org/2000/svg"
 width="150.000000pt" height="150.000000pt" viewBox="0 0 150.000000 150.000000"
 preserveAspectRatio="xMidYMid meet">
<metadata>
Created by potrace 1.11, written by Peter Selinger 2001-2013
</metadata>
<g transform="translate(0.000000,150.000000) scale(0.100000,-0.100000)"
fill="#000000" stroke="none">
<path d="M63 1085 c-58 -25 -63 -49 -63 -287 0 -117 5 -229 10 -249 14 -49 74
-107 119 -115 20 -4 43 -12 51 -19 25 -22 67 -28 105 -15 65 21 88 113 43 168
-7 8 -28 21 -46 29 -32 13 -33 15 -20 36 8 12 34 55 58 95 23 40 47 75 51 78
5 3 29 -6 54 -19 l44 -25 24 62 c13 33 32 87 42 119 10 31 20 56 22 54 2 -3
52 -49 110 -103 59 -55 124 -116 146 -136 22 -21 44 -35 51 -31 6 3 29 18 51
33 85 57 72 60 186 -49 l103 -98 -38 -13 c-43 -14 -76 -59 -76 -103 0 -82 96
-135 160 -89 18 12 46 17 96 18 82 2 107 13 134 57 15 24 20 50 20 106 0 88
-22 134 -74 151 -18 5 -41 17 -52 26 -10 8 -100 71 -199 139 -99 68 -187 130
-195 137 -8 7 -35 23 -59 36 -44 22 -49 22 -435 22 -311 -1 -398 -4 -423 -15z
m230 -543 c36 -31 7 -112 -40 -112 -72 0 -95 98 -29 125 32 14 39 12 69 -13z
m941 3 c32 -30 33 -65 2 -94 -19 -18 -31 -22 -55 -16 -68 15 -69 103 -1 128
24 9 26 8 54 -18z"/>
<path d="M571 913 c11 -13 11 -17 2 -20 -7 -3 -13 -13 -13 -24 0 -11 -7 -19
-16 -19 -12 0 -10 -7 10 -31 31 -37 34 -54 7 -39 -28 15 -33 13 -26 -10 4 -11
0 -34 -9 -50 -17 -36 -14 -37 24 -8 24 18 32 19 45 8 13 -10 23 -9 59 11 41
21 45 22 61 6 13 -14 33 -20 48 -16 1 0 15 -5 31 -11 l29 -11 -32 30 c-17 16
-31 34 -31 40 0 5 -20 24 -45 41 -25 17 -65 51 -89 75 -24 25 -49 45 -56 45
-9 0 -9 -4 1 -17z"/>
<path d="M364 753 c3 -15 1 -30 -4 -33 -11 -7 9 -70 22 -70 8 0 19 22 33 65 5
15 8 16 14 6 6 -10 10 -9 15 4 11 28 7 35 -20 35 -14 0 -34 5 -45 11 -18 9
-19 7 -15 -18z"/>
<path d="M993 753 c2 -12 -4 -17 -17 -15 -10 2 -15 -1 -12 -6 3 -5 -10 -23
-29 -41 -47 -43 -48 -61 -3 -40 18 8 33 6 68 -10 49 -22 64 -19 54 11 -4 14
-2 18 5 14 13 -8 51 -17 51 -11 0 3 -50 54 -93 93 -22 21 -25 22 -24 5z"/>
</g>
</svg>
